<svg width="565" height="565" viewBox="0 0 565 565" fill="none" xmlns="http://www.w3.org/2000/svg">
  <g opacity="0.5">
    <!-- Outer lotus petals layer 1 -->
    <path d="M282.5 20 L295 80 Q300 70 305 60 L320 85 Q315 75 310 70 L282.5 20 L255 70 Q250 75 245 85 L260 60 Q265 70 270 80 Z" stroke="#E87A60" stroke-width="1" fill="none"/>
    <path d="M282.5 20 L295 80 Q300 70 305 60 L320 85 Q315 75 310 70 L282.5 20 L255 70 Q250 75 245 85 L260 60 Q265 70 270 80 Z" stroke="#E87A60" stroke-width="1" fill="none" transform="rotate(22.5 282.5 282.5)"/>
    <path d="M282.5 20 L295 80 Q300 70 305 60 L320 85 Q315 75 310 70 L282.5 20 L255 70 Q250 75 245 85 L260 60 Q265 70 270 80 Z" stroke="#E87A60" stroke-width="1" fill="none" transform="rotate(45 282.5 282.5)"/>
    <path d="M282.5 20 L295 80 Q300 70 305 60 L320 85 Q315 75 310 70 L282.5 20 L255 70 Q250 75 245 85 L260 60 Q265 70 270 80 Z" stroke="#E87A60" stroke-width="1" fill="none" transform="rotate(67.5 282.5 282.5)"/>
    <path d="M282.5 20 L295 80 Q300 70 305 60 L320 85 Q315 75 310 70 L282.5 20 L255 70 Q250 75 245 85 L260 60 Q265 70 270 80 Z" stroke="#E87A60" stroke-width="1" fill="none" transform="rotate(90 282.5 282.5)"/>
    <path d="M282.5 20 L295 80 Q300 70 305 60 L320 85 Q315 75 310 70 L282.5 20 L255 70 Q250 75 245 85 L260 60 Q265 70 270 80 Z" stroke="#E87A60" stroke-width="1" fill="none" transform="rotate(112.5 282.5 282.5)"/>
    <path d="M282.5 20 L295 80 Q300 70 305 60 L320 85 Q315 75 310 70 L282.5 20 L255 70 Q250 75 245 85 L260 60 Q265 70 270 80 Z" stroke="#E87A60" stroke-width="1" fill="none" transform="rotate(135 282.5 282.5)"/>
    <path d="M282.5 20 L295 80 Q300 70 305 60 L320 85 Q315 75 310 70 L282.5 20 L255 70 Q250 75 245 85 L260 60 Q265 70 270 80 Z" stroke="#E87A60" stroke-width="1" fill="none" transform="rotate(157.5 282.5 282.5)"/>
    <path d="M282.5 20 L295 80 Q300 70 305 60 L320 85 Q315 75 310 70 L282.5 20 L255 70 Q250 75 245 85 L260 60 Q265 70 270 80 Z" stroke="#E87A60" stroke-width="1" fill="none" transform="rotate(180 282.5 282.5)"/>
    <path d="M282.5 20 L295 80 Q300 70 305 60 L320 85 Q315 75 310 70 L282.5 20 L255 70 Q250 75 245 85 L260 60 Q265 70 270 80 Z" stroke="#E87A60" stroke-width="1" fill="none" transform="rotate(202.5 282.5 282.5)"/>
    <path d="M282.5 20 L295 80 Q300 70 305 60 L320 85 Q315 75 310 70 L282.5 20 L255 70 Q250 75 245 85 L260 60 Q265 70 270 80 Z" stroke="#E87A60" stroke-width="1" fill="none" transform="rotate(225 282.5 282.5)"/>
    <path d="M282.5 20 L295 80 Q300 70 305 60 L320 85 Q315 75 310 70 L282.5 20 L255 70 Q250 75 245 85 L260 60 Q265 70 270 80 Z" stroke="#E87A60" stroke-width="1" fill="none" transform="rotate(247.5 282.5 282.5)"/>
    <path d="M282.5 20 L295 80 Q300 70 305 60 L320 85 Q315 75 310 70 L282.5 20 L255 70 Q250 75 245 85 L260 60 Q265 70 270 80 Z" stroke="#E87A60" stroke-width="1" fill="none" transform="rotate(270 282.5 282.5)"/>
    <path d="M282.5 20 L295 80 Q300 70 305 60 L320 85 Q315 75 310 70 L282.5 20 L255 70 Q250 75 245 85 L260 60 Q265 70 270 80 Z" stroke="#E87A60" stroke-width="1" fill="none" transform="rotate(292.5 282.5 282.5)"/>
    <path d="M282.5 20 L295 80 Q300 70 305 60 L320 85 Q315 75 310 70 L282.5 20 L255 70 Q250 75 245 85 L260 60 Q265 70 270 80 Z" stroke="#E87A60" stroke-width="1" fill="none" transform="rotate(315 282.5 282.5)"/>
    <path d="M282.5 20 L295 80 Q300 70 305 60 L320 85 Q315 75 310 70 L282.5 20 L255 70 Q250 75 245 85 L260 60 Q265 70 270 80 Z" stroke="#E87A60" stroke-width="1" fill="none" transform="rotate(337.5 282.5 282.5)"/>
    
    <!-- Middle lotus layer with intricate details -->
    <path d="M282.5 80 L295 140 Q305 130 310 125 L315 145 Q310 135 305 130 L282.5 80 L260 130 Q255 135 250 145 L255 125 Q260 130 270 140 Z" stroke="#E87A60" stroke-width="1.2" fill="none"/>
    <path d="M282.5 80 L295 140 Q305 130 310 125 L315 145 Q310 135 305 130 L282.5 80 L260 130 Q255 135 250 145 L255 125 Q260 130 270 140 Z" stroke="#E87A60" stroke-width="1.2" fill="none" transform="rotate(22.5 282.5 282.5)"/>
    <path d="M282.5 80 L295 140 Q305 130 310 125 L315 145 Q310 135 305 130 L282.5 80 L260 130 Q255 135 250 145 L255 125 Q260 130 270 140 Z" stroke="#E87A60" stroke-width="1.2" fill="none" transform="rotate(45 282.5 282.5)"/>
    <path d="M282.5 80 L295 140 Q305 130 310 125 L315 145 Q310 135 305 130 L282.5 80 L260 130 Q255 135 250 145 L255 125 Q260 130 270 140 Z" stroke="#E87A60" stroke-width="1.2" fill="none" transform="rotate(67.5 282.5 282.5)"/>
    <path d="M282.5 80 L295 140 Q305 130 310 125 L315 145 Q310 135 305 130 L282.5 80 L260 130 Q255 135 250 145 L255 125 Q260 130 270 140 Z" stroke="#E87A60" stroke-width="1.2" fill="none" transform="rotate(90 282.5 282.5)"/>
    <path d="M282.5 80 L295 140 Q305 130 310 125 L315 145 Q310 135 305 130 L282.5 80 L260 130 Q255 135 250 145 L255 125 Q260 130 270 140 Z" stroke="#E87A60" stroke-width="1.2" fill="none" transform="rotate(112.5 282.5 282.5)"/>
    <path d="M282.5 80 L295 140 Q305 130 310 125 L315 145 Q310 135 305 130 L282.5 80 L260 130 Q255 135 250 145 L255 125 Q260 130 270 140 Z" stroke="#E87A60" stroke-width="1.2" fill="none" transform="rotate(135 282.5 282.5)"/>
    <path d="M282.5 80 L295 140 Q305 130 310 125 L315 145 Q310 135 305 130 L282.5 80 L260 130 Q255 135 250 145 L255 125 Q260 130 270 140 Z" stroke="#E87A60" stroke-width="1.2" fill="none" transform="rotate(157.5 282.5 282.5)"/>
    <path d="M282.5 80 L295 140 Q305 130 310 125 L315 145 Q310 135 305 130 L282.5 80 L260 130 Q255 135 250 145 L255 125 Q260 130 270 140 Z" stroke="#E87A60" stroke-width="1.2" fill="none" transform="rotate(180 282.5 282.5)"/>
    <path d="M282.5 80 L295 140 Q305 130 310 125 L315 145 Q310 135 305 130 L282.5 80 L260 130 Q255 135 250 145 L255 125 Q260 130 270 140 Z" stroke="#E87A60" stroke-width="1.2" fill="none" transform="rotate(202.5 282.5 282.5)"/>
    <path d="M282.5 80 L295 140 Q305 130 310 125 L315 145 Q310 135 305 130 L282.5 80 L260 130 Q255 135 250 145 L255 125 Q260 130 270 140 Z" stroke="#E87A60" stroke-width="1.2" fill="none" transform="rotate(225 282.5 282.5)"/>
    <path d="M282.5 80 L295 140 Q305 130 310 125 L315 145 Q310 135 305 130 L282.5 80 L260 130 Q255 135 250 145 L255 125 Q260 130 270 140 Z" stroke="#E87A60" stroke-width="1.2" fill="none" transform="rotate(247.5 282.5 282.5)"/>
    <path d="M282.5 80 L295 140 Q305 130 310 125 L315 145 Q310 135 305 130 L282.5 80 L260 130 Q255 135 250 145 L255 125 Q260 130 270 140 Z" stroke="#E87A60" stroke-width="1.2" fill="none" transform="rotate(270 282.5 282.5)"/>
    <path d="M282.5 80 L295 140 Q305 130 310 125 L315 145 Q310 135 305 130 L282.5 80 L260 130 Q255 135 250 145 L255 125 Q260 130 270 140 Z" stroke="#E87A60" stroke-width="1.2" fill="none" transform="rotate(292.5 282.5 282.5)"/>
    <path d="M282.5 80 L295 140 Q305 130 310 125 L315 145 Q310 135 305 130 L282.5 80 L260 130 Q255 135 250 145 L255 125 Q260 130 270 140 Z" stroke="#E87A60" stroke-width="1.2" fill="none" transform="rotate(315 282.5 282.5)"/>
    <path d="M282.5 80 L295 140 Q305 130 310 125 L315 145 Q310 135 305 130 L282.5 80 L260 130 Q255 135 250 145 L255 125 Q260 130 270 140 Z" stroke="#E87A60" stroke-width="1.2" fill="none" transform="rotate(337.5 282.5 282.5)"/>
    
    <!-- Inner decorative petals -->
    <path d="M282.5 140 Q295 160 310 165 L305 175 Q292 170 282.5 140 Q273 170 260 175 L255 165 Q270 160 282.5 140 Z" stroke="#E87A60" stroke-width="1" fill="none"/>
    <path d="M282.5 140 Q295 160 310 165 L305 175 Q292 170 282.5 140 Q273 170 260 175 L255 165 Q270 160 282.5 140 Z" stroke="#E87A60" stroke-width="1" fill="none" transform="rotate(45 282.5 282.5)"/>
    <path d="M282.5 140 Q295 160 310 165 L305 175 Q292 170 282.5 140 Q273 170 260 175 L255 165 Q270 160 282.5 140 Z" stroke="#E87A60" stroke-width="1" fill="none" transform="rotate(90 282.5 282.5)"/>
    <path d="M282.5 140 Q295 160 310 165 L305 175 Q292 170 282.5 140 Q273 170 260 175 L255 165 Q270 160 282.5 140 Z" stroke="#E87A60" stroke-width="1" fill="none" transform="rotate(135 282.5 282.5)"/>
    <path d="M282.5 140 Q295 160 310 165 L305 175 Q292 170 282.5 140 Q273 170 260 175 L255 165 Q270 160 282.5 140 Z" stroke="#E87A60" stroke-width="1" fill="none" transform="rotate(180 282.5 282.5)"/>
    <path d="M282.5 140 Q295 160 310 165 L305 175 Q292 170 282.5 140 Q273 170 260 175 L255 165 Q270 160 282.5 140 Z" stroke="#E87A60" stroke-width="1" fill="none" transform="rotate(225 282.5 282.5)"/>
    <path d="M282.5 140 Q295 160 310 165 L305 175 Q292 170 282.5 140 Q273 170 260 175 L255 165 Q270 160 282.5 140 Z" stroke="#E87A60" stroke-width="1" fill="none" transform="rotate(270 282.5 282.5)"/>
    <path d="M282.5 140 Q295 160 310 165 L305 175 Q292 170 282.5 140 Q273 170 260 175 L255 165 Q270 160 282.5 140 Z" stroke="#E87A60" stroke-width="1" fill="none" transform="rotate(315 282.5 282.5)"/>
    
    <!-- Concentric circles -->
    <circle cx="282.5" cy="282.5" r="250" stroke="#E87A60" stroke-width="1.5" fill="none"/>
    <circle cx="282.5" cy="282.5" r="220" stroke="#E87A60" stroke-width="1" fill="none"/>
    <circle cx="282.5" cy="282.5" r="190" stroke="#E87A60" stroke-width="1.2" fill="none"/>
    <circle cx="282.5" cy="282.5" r="160" stroke="#E87A60" stroke-width="1" fill="none"/>
    <circle cx="282.5" cy="282.5" r="130" stroke="#E87A60" stroke-width="1" fill="none"/>
    <circle cx="282.5" cy="282.5" r="100" stroke="#E87A60" stroke-width="0.8" fill="none"/>
    <circle cx="282.5" cy="282.5" r="70" stroke="#E87A60" stroke-width="0.8" fill="none"/>
    
    <!-- Inner geometric star pattern -->
    <polygon points="282.5,212.5 302.5,252.5 342.5,262.5 312.5,292.5 322.5,332.5 282.5,312.5 242.5,332.5 252.5,292.5 222.5,262.5 262.5,252.5" fill="none" stroke="#E87A60" stroke-width="1"/>
    
    <!-- Square frames rotated -->
    <rect x="232.5" y="232.5" width="100" height="100" fill="none" stroke="#E87A60" stroke-width="0.8"/>
    <rect x="232.5" y="232.5" width="100" height="100" fill="none" stroke="#E87A60" stroke-width="0.8" transform="rotate(45 282.5 282.5)"/>
    
    <!-- Central decorative elements -->
    <circle cx="282.5" cy="282.5" r="40" stroke="#E87A60" stroke-width="1" fill="none"/>
    <circle cx="282.5" cy="282.5" r="20" stroke="#E87A60" stroke-width="0.8" fill="none"/>
  </g>
</svg>

